<?xml version="1.0" encoding="UTF-8" standalone="no"?><!-- Generator: Gravit.io --><svg xmlns="http://www.w3.org/2000/svg" xmlns:xlink="http://www.w3.org/1999/xlink" style="isolation:isolate" viewBox="0 0 1110 1119" width="100%" height="100%"><defs><clipPath id="_clipPath_P7ieifblfRJsayywAUbj9TeKP2clDRlR"><rect width="1110" height="1119"/></clipPath></defs><g clip-path="url(#_clipPath_P7ieifblfRJsayywAUbj9TeKP2clDRlR)"><path d=" M 1002.63 676.605 C 996.251 713.585 980.215 806.896 901.24 856.472 C 853.625 886.341 787.931 897.274 732.583 882.592 C 697.249 873.227 687.336 859.085 632.644 846.038 C 615.61 841.945 582.623 834.319 540.189 834.813 C 524.693 834.963 509.482 836.245 420.341 854.66 C 337.247 871.823 333.416 874.219 315.694 872.953 C 259.667 868.985 219.634 839.17 205.537 827.464 C 192.591 816.75 154.104 782.228 138.81 723.205 C 116.423 636.827 161.498 566.246 172.409 550.375 C 192.109 521.675 196.728 530.73 232.16 487.155 C 252.015 462.801 282.994 424.01 302.634 369.225 C 319.745 321.304 309.531 313.239 324.318 269.536 C 342.205 216.691 375.494 176.348 397.809 155.388 C 475.196 82.637 623.269 99.314 718.175 141.924 C 846.19 199.365 900.957 314.473 943.673 404.309 C 977.934 476.658 1021.77 565.202 1002.63 676.605 Z " fill="rgb(122,246,152)"/><path d=" M 174.013 355.87 C 138.262 383.332 86.942 376.603 59.479 340.852 C 32.017 305.101 38.746 253.781 74.497 226.318 C 110.248 198.856 161.568 205.585 189.031 241.336 C 216.493 277.087 209.764 328.407 174.013 355.87 Z " fill="rgb(122,246,152)"/><path d=" M 133.143 225.893 C 117.943 237.569 96.122 234.708 84.445 219.507 C 72.769 204.307 75.63 182.486 90.831 170.809 C 106.031 159.133 127.852 161.994 139.529 177.195 C 151.205 192.395 148.344 214.216 133.143 225.893 Z " fill="none" vector-effect="non-scaling-stroke" stroke-width="3" stroke="rgb(0,0,0)" stroke-linejoin="miter" stroke-linecap="butt" stroke-miterlimit="4"/><g style="isolation:isolate"/><clipPath id="_clipPath_QRozYtu9iBfyc1xcQ1FP8vr0F6H8Ocu5"><rect x="374.445" y="234.78" width="361.11" height="649.44" transform="matrix(1,0,0,1,0,0)" fill="rgb(255,255,255)"/></clipPath><g clip-path="url(#_clipPath_QRozYtu9iBfyc1xcQ1FP8vr0F6H8Ocu5)"><g filter="url(#xSLBkb0b6AVkmYI12SGxC8V8EOOv93vf)"><path d=" M 618.715 863.44 L 619.905 872.64 L 602.665 884.22 L 592.275 876.19 L 600.305 865.8 L 617.535 854.23 L 618.715 863.44 Z " fill="rgb(59,69,90)"/><path d=" M 619.295 860.34 L 606.005 742.91 L 621.995 611.45 L 618.405 583.48 L 546.985 580.77 L 544.405 626.28 L 556.395 743.09 L 601.505 866.35 L 619.295 860.34 Z " fill="rgb(0,1,1)"/><path d=" M 494.585 593.93 L 494.395 712.43 L 518.245 864.99 L 535.415 864.82 L 544.855 723.74 L 566.945 582.54 L 494.585 593.93 Z " fill="rgb(0,1,1)"/><path d=" M 535.395 872.06 L 516.915 881.52 L 507.545 872.33 L 516.735 862.96 L 535.295 862.77 L 535.395 872.06 Z " fill="rgb(0,1,1)"/><path d=" M 629.385 634.23 C 629.225 629.09 628.935 624.81 628.895 623.28 C 628.525 609.5 627.295 595.76 625.575 582.08 C 624.025 569.82 622.075 539.39 619.985 527.21 C 618.255 517.15 612.215 492.05 607.855 482.72 C 597.015 459.52 600.365 457.38 552.725 450.49 C 531.845 447.47 526.915 460.48 509.845 475.44 C 508.165 476.92 508.255 485.7 507.865 488.03 C 507.175 492.13 506.445 496.22 505.595 500.29 C 504.935 503.49 504.195 506.68 503.375 509.85 C 494.885 542.65 485.115 574.19 483.115 608.19 C 482.545 617.78 479.605 627.09 479.865 636.77 C 479.895 637.88 479.985 639.07 480.675 639.95 C 483.555 643.58 499.475 638.03 504.305 637.56 C 516.595 636.35 529.145 635.59 541.505 635.68 C 554.185 635.77 566.925 637.06 579.395 639.21 C 587.735 640.6 596.245 642.63 603.705 646.53 C 610.825 650.25 615.955 655.72 623.175 659.57 C 623.855 659.93 624.605 660.31 625.385 660.2 C 629.535 659.61 629.735 645.04 629.385 634.23 Z " fill="rgb(0,118,61)"/><path d=" M 552.675 457.03 C 555.075 458.22 560.755 458.64 566.665 456.33 C 567.855 455.86 568.665 454.71 568.645 453.43 C 568.595 449.84 568.305 446.24 567.775 442.69 C 572.215 441.13 577.345 438.79 578.115 434.15 C 578.355 432.69 578.105 431.19 577.855 429.73 C 576.815 423.69 575.765 417.66 574.725 411.62 C 574.365 409.53 573.985 407.38 572.845 405.59 C 570.855 402.45 566.985 401.08 563.325 400.44 C 553.975 398.82 543.795 400.84 536.545 406.96 C 534.615 408.59 532.875 410.55 532.025 412.93 C 530.715 416.6 531.695 420.64 532.685 424.4 C 533.595 427.88 534.515 431.35 535.425 434.83 C 536.475 438.83 537.995 443.37 541.845 444.87 C 543.895 445.67 546.305 445.43 548.155 446.61 C 551.415 448.7 550.975 453.55 552.675 457.03 Z " fill="rgb(213,198,171)"/><path d=" M 501.115 396.56 C 499.515 381.57 506.065 365.79 518.395 368.92 C 525.865 370.82 532.545 373.97 540.065 371.16 C 547.125 368.52 552.235 369.6 559.615 372.23 C 567.605 375.08 578.335 375.75 585.565 379.78 C 588.585 381.46 590.995 384.09 592.875 386.99 C 599.385 397.04 599.415 410.9 592.965 420.99 C 591.515 423.25 589.785 425.32 587.965 427.3 C 584.195 431.39 579.685 436.44 574.505 437.95 C 574.385 433.31 578.605 418.68 575.045 414.88 C 569.395 408.85 556.605 410.95 549.595 412.44 C 541.945 414.06 535.125 419.48 527.545 420.64 C 510.785 423.19 502.575 410.21 501.115 396.56 Z " fill="rgb(59,54,49)"/><path d=" M 640.975 240.86 C 609.365 237.07 568.835 252.8 558.295 279.95 C 549.795 252.1 501.785 233.4 469.975 234.86 C 386.055 238.72 354.215 332.45 387.325 397.49 C 405.145 432.49 431.465 463.49 460.405 491.52 C 484.635 514.99 547.515 565.19 547.715 565.04 C 547.905 565.21 614.335 519.75 640.235 498.11 C 671.165 472.28 699.715 443.29 720.085 409.68 C 757.925 347.25 724.385 250.85 640.975 240.86 Z " fill="rgb(211,78,78)"/><g style="opacity:0.12;"><g opacity="0.12"><path d=" M 701.765 415.67 C 679.965 440.49 654.925 463.63 627.945 483.3 C 601.855 502.32 571.505 518.6 538.605 523.21 C 522.795 525.42 507.435 524.47 493.015 520.54 C 518.925 542.44 547.135 564.89 547.275 564.79 C 547.465 564.96 613.895 519.5 639.795 497.86 C 670.725 472.03 699.275 443.04 719.645 409.43 C 726.235 398.56 730.655 386.65 733.025 374.36 C 723.795 388.89 713.195 402.65 701.765 415.67 Z " fill="rgb(0,0,0)"/></g></g><path d=" M 428.075 476.77 L 429.635 466.52 L 446.375 469.33 L 453.015 485.55 L 439.535 492.37 L 428.075 476.77 Z " fill="rgb(226,189,170)"/><path d=" M 676.135 478.51 L 676.725 468.17 L 659.765 467.47 L 649.925 481.97 L 661.715 491.42 L 676.135 478.51 Z " fill="rgb(226,189,170)"/></g><defs><filter id="xSLBkb0b6AVkmYI12SGxC8V8EOOv93vf" x="-200%" y="-200%" width="400%" height="400%" filterUnits="objectBoundingBox" color-interpolation-filters="sRGB"><feGaussianBlur xmlns="http://www.w3.org/2000/svg" in="SourceGraphic" stdDeviation="10"/><feOffset xmlns="http://www.w3.org/2000/svg" dx="10" dy="10" result="pf_100_offsetBlur"/><feFlood xmlns="http://www.w3.org/2000/svg" flood-color="#000000" flood-opacity="0"/><feComposite xmlns="http://www.w3.org/2000/svg" in2="pf_100_offsetBlur" operator="in" result="pf_100_dropShadow"/><feBlend xmlns="http://www.w3.org/2000/svg" in="SourceGraphic" in2="pf_100_dropShadow" mode="normal"/></filter></defs></g></g></svg>